<svg xmlns="http://www.w3.org/2000/svg" viewBox="0 0 130 47" >
  <defs>
    <style>
  /* Custom Css here */
  * {
  font-size: 7px;
  font-family: arial;
	}
	.trustGuard {
	transform:translate(1px, 0);
	fill:#333333;
	}
	.secured {
	fill:#333333;
	}
	.seal-bg {
	fill:#FFFFFF;
	}
	#tgShield {
	transform:scale(1)!important;
	}

	.shield-Top{
		fill:#FFFFFF;
	}
	.shield-Layer1 {
		fill:#333333;
	}
	.shield-Layer2 {
		fill:#FFFFFF;
	}
	.shield-Left {
		fill:#66CC3E;
	}
	.shield-Right {
		fill:#33981F;
	}
	.shield-Hole {
		fill:#ffffff;
	}
	.primaryLayer {
		animation: fade1 6s ease alternate infinite;
		animation-iteration-count:1;
		fill:#333333;
	}
	@keyframes fade1 {
	  0% { opacity:0; }
	  40% { opacity:0; }
	  50% { opacity:0; }
	 100% { opacity:1; }
	}
	.secondaryLayer {
		opacity:0;
		fill:#333333;
		animation: fade2 6s ease alternate infinite;
		animation-iteration-count:1;
		letter-spacing:0.4!important;
	}
	@keyframes fade2 {
	  0% { opacity:1; }
	  50% { opacity:1; }
	  60% { opacity:0; }
	  100% { opacity:0; }
	}
  .edge-border{
  fill:#f5f5f5;
  transform: translate(-0.09px,-.12px)scale(1.002);
  stroke-width: 0.px;
  }
    </style>
  </defs>
  <title>TG-dark-center</title>
  <g id="Layer_1" data-name="Layer 1">
	<!-- Background STARTS HERE -->

    <!-- border radius --><!--<path class="seal-bg cls-1" d="M0,12V42a5,5,0,0,0,5,5H125a5,5,0,0,0,5-5V12a5,5,0,0,0-5-5H5A5,5,0,0,0,0,12Z"/>-->

	<!-- no border radius --><!--<path class="seal-bg cls-1" d="M0,7V47H130V7Z"/>-->

	<!-- border for right --><path class="seal-bg cls-1" d="M0,12V47H130V7H5A5,5,0,0,0,0,12Z"/>

	<!-- border for left --><!--<path class="seal-bg cls-1" d="M0,7V47H130V12a5,5,0,0,0-5-5Z"/>-->

	<g transform="translate(-35 0)">
	<!-- Trust Guard STARTS HERE -->
    <path class="cls-2 trustGuard" d="M63.5,14.54V11h1.08v3.29a.71.71,0,0,0,.71.71H66a.7.7,0,0,0,.7-.7h0V11h1.08v3.51A1.49,1.49,0,0,1,66.3,16H65A1.49,1.49,0,0,1,63.5,14.54Z"/>
    <path class="cls-2 trustGuard" d="M55,12v4H53.91V12H52.19V11h4.53v1Z"/>
    <path class="cls-2 trustGuard" d="M77.43,12v4H76.31V12H74.58V11h4.53v1Z"/>
    <path class="cls-2 trustGuard" d="M72,13H70.88a.51.51,0,0,1-.6-.4.5.5,0,0,1,.4-.6.34.34,0,0,1,.2,0h2.21l.42-1H70.74a1.47,1.47,0,0,0-1.47,1.47h0A1.48,1.48,0,0,0,70.75,14H71.9a.51.51,0,0,1,.51.51h0a.51.51,0,0,1-.51.51H69.68l-.41,1H72a1.5,1.5,0,0,0,1.48-1.48h0A1.48,1.48,0,0,0,72,13Z"/>
    <path class="cls-2 trustGuard" d="M61,16h1.27L61,14.25A1.71,1.71,0,0,0,61.92,12a1.19,1.19,0,0,0-.13-.25A1.49,1.49,0,0,0,60.5,11H58v5H59V14.37h.84Zm-2-2.61V12H60.2a.7.7,0,0,1,.7.7h0a.7.7,0,0,1-.7.7Z"/>
    <path class="cls-2 trustGuard" d="M88.43,14.54V11h1.08v3.29a.71.71,0,0,0,.71.71h.71a.7.7,0,0,0,.7-.7h0V11h1.08v3.51A1.49,1.49,0,0,1,91.23,16H89.91A1.49,1.49,0,0,1,88.43,14.54Z"/>
    <path class="cls-2 trustGuard" d="M97.57,16l-.45-1.11H95L94.59,16h-1.1l2.12-5h1l2.12,5Zm-1.49-3.65L95.43,14h1.3Z"/>
    <path class="cls-2 trustGuard" d="M108.12,16h-3V11h3a1.49,1.49,0,0,1,1.49,1.49v2A1.49,1.49,0,0,1,108.14,16Zm-.35-4h-1.61v3h1.61a.72.72,0,0,0,.71-.7V12.75a.7.7,0,0,0-.68-.74h0Z"/>
    <path class="cls-2 trustGuard" d="M85.06,14.05h1.09v1H84.5a.7.7,0,0,1-.71-.69h0v-1.6A.71.71,0,0,1,84.5,12h2.27l.42-1h-3a1.49,1.49,0,0,0-1.49,1.49v2A1.49,1.49,0,0,0,84.19,16h2.2a.85.85,0,0,0,.84-.84V13.11H85.06Z"/>
    <path class="cls-2 trustGuard" d="M102.66,16h1.26l-1.22-1.78a1.71,1.71,0,0,0,.86-2.26,1.36,1.36,0,0,0-.13-.24,1.48,1.48,0,0,0-1.28-.74H99.59v5h1.08V14.37h.85Zm-2-2.61V12h1.22a.71.71,0,0,1,.71.71h0a.7.7,0,0,1-.7.7h-1.23Z"/>
    <path class="cls-2 trustGuard" d="M112.49,12.1a1.09,1.09,0,0,1-2.18.08,1.09,1.09,0,0,1,1-1.13h.07A1.06,1.06,0,0,1,112.49,12.1Zm-1.9,0a.82.82,0,0,0,.8.84h0a.8.8,0,0,0,.8-.8v0a.83.83,0,0,0-.73-.91.82.82,0,0,0-.9.73.54.54,0,0,0,0,.18Zm.65.56H111V11.6a1.34,1.34,0,0,1,.4,0,.68.68,0,0,1,.37.07.31.31,0,0,1,.1.24.28.28,0,0,1-.22.24h0a.3.3,0,0,1,.2.26.7.7,0,0,0,.08.27h-.27a.87.87,0,0,1-.08-.26c0-.12-.09-.17-.22-.17h-.12Zm0-.6h.11c.14,0,.25,0,.25-.16s-.06-.15-.17-.15h-.13Z"/>

	<!-- SECURED STARTS HERE -->
	<g class="secured" transform="translate(6.5 0)">
	<path class="cls-2 secured" d="M44.21,22.67a1.07,1.07,0,0,0-.39.85,1,1,0,0,0,.48.84,9.47,9.47,0,0,0,2.2.73,6.23,6.23,0,0,1,2.67,1.27,3.15,3.15,0,0,1,.95,2.46,3.29,3.29,0,0,1-1.22,2.64,4.83,4.83,0,0,1-3.21,1,7.42,7.42,0,0,1-5.16-2.12l1.61-2a5.7,5.7,0,0,0,3.61,1.7,1.84,1.84,0,0,0,1.16-.32,1.07,1.07,0,0,0,.25-1.48,1.18,1.18,0,0,0-.25-.25,5.89,5.89,0,0,0-1.77-.65,7.78,7.78,0,0,1-3.07-1.28,3.07,3.07,0,0,1-1-2.53,3.1,3.1,0,0,1,1.24-2.64,5,5,0,0,1,3.08-1,7.93,7.93,0,0,1,2.42.41A6.39,6.39,0,0,1,50,21.56l-1.37,2a5.27,5.27,0,0,0-3.24-1.19A1.6,1.6,0,0,0,44.21,22.67Z"/>
    <path class="cls-2 secured" d="M61.12,20.26v2.4h-6v2.49h5.4v2.29h-5.4V30h6.2v2.39h-8.9V20.26Z"/>
    <path class="cls-2 secured" d="M69.25,30a4,4,0,0,0,3.3-1.58l1.73,1.79a6.52,6.52,0,0,1-9.19.77l-.26-.22A6,6,0,0,1,63,26.26a6.07,6.07,0,0,1,1.84-4.49A6.29,6.29,0,0,1,69.36,20a6.41,6.41,0,0,1,5,2.26l-1.68,1.91a3.92,3.92,0,0,0-3.18-1.59,3.71,3.71,0,0,0-2.6,1,3.47,3.47,0,0,0-1.11,2.75,3.65,3.65,0,0,0,1.06,2.67A3.4,3.4,0,0,0,69.25,30Z"/>
    <path class="cls-2 secured" d="M79.55,29.21a2.17,2.17,0,0,0,1.82.84,2.15,2.15,0,0,0,1.8-.84,3.51,3.51,0,0,0,.66-2.28V20.26h2.7V27a5.4,5.4,0,0,1-1.45,4,5.63,5.63,0,0,1-7.44,0,5.4,5.4,0,0,1-1.46-4V20.26h2.69v6.67A3.59,3.59,0,0,0,79.55,29.21Z"/>
    <path class="cls-2 secured" d="M99.12,24.27A3.58,3.58,0,0,1,96.82,28l3.06,4.33H96.57l-2.68-3.86H92v3.86H89.33V20.26H93.9a6.52,6.52,0,0,1,4,.95A3.65,3.65,0,0,1,99.12,24.27ZM95.87,25.7a1.83,1.83,0,0,0,.51-1.42,1.52,1.52,0,0,0-.53-1.34A3.32,3.32,0,0,0,94,22.57H92v3.58h2A2.89,2.89,0,0,0,95.87,25.7Z"/>
    <path class="cls-2 secured" d="M110.64,20.26v2.4h-6v2.49H110v2.29h-5.4V30h6.2v2.39h-9V20.26Z"/>
    </g>

	<!-- ACTIVE TEXT -->
    <text class="primaryLayer cls-3 scan-status" transform="translate(40.53 42.03)">ACTIVE</text>
	<!-- DATE TEXT -->
		<g>
		<text class="primaryLayer cls-4 date" transform="translate(95.40 42.03)">10-29-25</text>
		</g>

		<text class="secondaryLayer" x="63%" y="85.5%"  dominant-baseline="middle" text-anchor="middle" font-size="7" fill="#fff" font-family="arial">MOUSER ELECTRONICS</text>
    </g>

	<!-- Start TG shield -->
	<g class="tgShield"  transform="translate(90 0)">
    <path class="shield-Top cls-7" d="M18.22,45.26C17.64,45.06,3.6,40.09,3.6,27V13.4l4.2-.91a12.46,12.46,0,0,1,24.91,0l4.22.91V27c0,13.05-14,18-14.63,18.22l-2,.71ZM25,10.83a5,5,0,0,0-9.36,0l4.68-1Z"/>
    <path class="shield-Layer1 cls-8" d="M30.71,14.11V12.68A10.45,10.45,0,0,0,20.26,2.22h0A10.46,10.46,0,0,0,9.8,12.68h0v1.43L5.6,15V27c0,11.56,12.74,16.14,13.28,16.33l1.39.49,1.38-.49C22.2,43.18,34.93,38.6,34.93,27V15ZM13.23,12.68a7,7,0,1,1,14.07,0v.69l-7-1.5-7,1.5Z"/>
    <path class="shield-Layer2 cls-7" d="M19.57,41.39C19.09,41.22,7.7,37.14,7.7,27V16.71L20.26,14l12.56,2.69V27c0,10.1-11.38,14.18-11.87,14.35l-.69.24Z"/>
    <path class="shield-Left cls-10" d="M9.8,18.41V27c0,8.72,10.46,12.36,10.46,12.36V16.17Z"/>
    <path class="shield-Right cls-9" d="M20.26,39.4S30.71,35.76,30.71,27v-8.6L20.26,16.17Z"/>
    <path class="shield-Hole cls-8" d="M22.79,24.7A2.52,2.52,0,1,0,19.25,27l-.41,4.81H21.7L21.3,27A2.52,2.52,0,0,0,22.79,24.7Z"/>
	</g>
	<!-- End TG shield -->


    <path xmlns="http://www.w3.org/2000/svg" class="edge-border" d="M109.82,1.17A11.42,11.42,0,0,1,120,7.41l.28.54h8.82V46H1.1V12a4,4,0,0,1,4-4H99.36l.28-.54a11.42,11.42,0,0,1,10.18-6.24m0-1A12.46,12.46,0,0,0,98.75,7H5.1a5,5,0,0,0-5,5V47h130V7h-9.21A12.46,12.46,0,0,0,109.82.17Z"/>
  </g>
</svg>
